<svg xmlns="http://www.w3.org/2000/svg" version="1.1" xmlns:xlink="http://www.w3.org/1999/xlink" width="512" height="512" x="0" y="0" viewBox="0 0 32 32" style="enable-background:new 0 0 512 512" xml:space="preserve" class=""><g><path d="M16 30.519a.75.75 0 0 1-.438-.14c-.064-.048-1.616-1.165-3.702-3.03-.25-.22-.514-.455-.779-.699-1.796-1.655-4.365-4.25-6.4-7.217a.75.75 0 1 1 1.237-.848c1.548 2.256 3.685 4.663 6.18 6.962.256.237.511.463.757.678a52.811 52.811 0 0 0 3.144 2.608 56.143 56.143 0 0 0 4.622-3.966 46.057 46.057 0 0 0 3.849-4.133c.646-.805 1.16-1.49 1.611-2.149a.75.75 0 1 1 1.238.848 37.122 37.122 0 0 1-1.684 2.246 47.518 47.518 0 0 1-3.978 4.273c-2.784 2.665-5.12 4.355-5.219 4.425a.75.75 0 0 1-.438.142zM29.611 13.76a.75.75 0 0 1-.727-.94c.735-2.803.365-5.215-1.13-7.374-1.757-2.55-4.898-2.788-7.251-2.162a1.572 1.572 0 0 1-.179.051 8.852 8.852 0 0 0-3.794 2.214.75.75 0 0 1-1.06 0C13.69 3.77 11.065 2.8 8.612 3.024c-1.31.12-3.132.636-4.365 2.421-1.496 2.16-1.866 4.571-1.131 7.374a.75.75 0 0 1-1.451.38c-.84-3.207-.387-6.103 1.348-8.607 1.22-1.765 3.16-2.852 5.464-3.061 2.644-.238 5.464.696 7.523 2.466a10.447 10.447 0 0 1 3.965-2.12l.06-.014.098-.03c3.627-.966 7.026.09 8.865 2.76 1.734 2.504 2.188 5.4 1.348 8.606a.75.75 0 0 1-.725.56z" fill="#000000" opacity="1" data-original="#000000" class=""></path><path d="M15.846 22.76a.75.75 0 0 1-.738-.615l-1.594-8.678-1.351 5.175a.75.75 0 0 1-.663.558.763.763 0 0 1-.746-.439l-1.52-3.37-.42.927a.75.75 0 0 1-.683.441H1a.75.75 0 0 1 0-1.5h6.647l.903-2.002c.242-.537 1.125-.537 1.367 0l1.331 2.952 1.668-6.39c.089-.34.39-.586.753-.56a.75.75 0 0 1 .71.615l1.467 7.984.364-1.984a.75.75 0 0 1 .738-.615H18.6l.938-3.018a.75.75 0 0 1 1.432 0l1.548 4.98 1.44-3.914a.75.75 0 0 1 .678-.49c.295-.028.585.163.71.44l.902 2.002H31a.75.75 0 0 1 0 1.5h-5.236a.75.75 0 0 1-.684-.442l-.347-.77-1.57 4.267a.751.751 0 0 1-.705.49h-.02a.748.748 0 0 1-.696-.527l-1.488-4.787-.387 1.242a.75.75 0 0 1-.715.527h-1.58l-.988 5.386a.75.75 0 0 1-.738.614z" fill="#000000" opacity="1" data-original="#000000" class=""></path></g></svg>