<svg xmlns="http://www.w3.org/2000/svg" version="1.1" xmlns:xlink="http://www.w3.org/1999/xlink" width="512" height="512" x="0" y="0" viewBox="0 0 682.667 682.667" style="enable-background:new 0 0 512 512" xml:space="preserve" class=""><g><defs><clipPath id="a" clipPathUnits="userSpaceOnUse"><path d="M0 512h512V0H0Z" fill="#000000" opacity="1" data-original="#000000"></path></clipPath></defs><g clip-path="url(#a)" transform="matrix(1.33333 0 0 -1.33333 0 682.667)"><path d="M0 0a158.023 158.023 0 0 1-1.759-15.425c-1.193-18.292-9.078-27.131-10.859-34.78-2.164-9.292 7.715-18.834 11.66-28.013 1.652-3.845 1.382-8.278-.668-11.928-8.13-14.472-18.333-24.317-30.538-33.712-7.11-5.475-12.536-10.368-12.518-18.891.023-9.942 6.247-16.438 19.607-20.546 25.593-7.871-5.349-27.934-5.349-27.934s-4.287-6.172 2.718-11.758c8.261-6.586 12.004-11.464 12.004-11.464-12.64-9.113-5.772-19.179-5.772-19.179s6.556-1.398 11.652-4.927c2.55-1.764 4.119-5.952 2.351-9.112-3.281-5.864-7.754-12.888-4.703-25.281 4.703-19.108 20.735-26.175 36.818-28.808 11.284-1.846 34.65 2.069 58.425 5.291 43.228 5.859 62.405-31.054 74.736-61.429 3.795-9.349 13.924-14.437 23.693-11.918l149.07 38.425c11.586 2.987 18.012 15.342 13.851 26.56-2.315 6.241-4.69 13.025-6.902 20.041" style="stroke-width:15;stroke-linecap:round;stroke-linejoin:round;stroke-miterlimit:10;stroke-dasharray:none;stroke-opacity:1" transform="translate(74.797 377.956)" fill="none" stroke="#000000" stroke-width="15" stroke-linecap="round" stroke-linejoin="round" stroke-miterlimit="10" stroke-dasharray="none" stroke-opacity="" data-original="#000000" class=""></path><path d="M0 0c-3.146 19.336-2.311 36.665 7.276 45.341 60.1 54.389 70.683 84.643 70.683 155.194 0 127.873-125.607 176.965-227.894 176.965-73.983 0-142.522-31.5-169.363-92.986" style="stroke-width:15;stroke-linecap:round;stroke-linejoin:round;stroke-miterlimit:10;stroke-dasharray:none;stroke-opacity:1" transform="translate(403.926 127)" fill="none" stroke="#000000" stroke-width="15" stroke-linecap="round" stroke-linejoin="round" stroke-miterlimit="10" stroke-dasharray="none" stroke-opacity="" data-original="#000000" class=""></path><path d="M0 0a28.99 28.99 0 0 1 13.638-6.018 29.063 29.063 0 0 1 10.285.206c5.782-7.001 14.037-12.008 23.711-13.541 21.06-3.335 40.838 11.034 44.173 32.094.426 2.69.563 5.359.434 7.975" style="stroke-width:15;stroke-linecap:round;stroke-linejoin:round;stroke-miterlimit:10;stroke-dasharray:none;stroke-opacity:1" transform="translate(299.657 216.263)" fill="none" stroke="#000000" stroke-width="15" stroke-linecap="round" stroke-linejoin="round" stroke-miterlimit="10" stroke-dasharray="none" stroke-opacity="" data-original="#000000" class=""></path><path d="m0 0 19.494-63.437c1.557-5.066-2.735-10.01-7.97-9.181l-24.454 3.873a16.068 16.068 0 0 0-12.365 9.805L-49.723.98" style="stroke-width:15;stroke-linecap:round;stroke-linejoin:round;stroke-miterlimit:10;stroke-dasharray:none;stroke-opacity:1" transform="translate(293.62 235.79)" fill="none" stroke="#000000" stroke-width="15" stroke-linecap="round" stroke-linejoin="round" stroke-miterlimit="10" stroke-dasharray="none" stroke-opacity="" data-original="#000000" class=""></path><path d="M0 0a57.859 57.859 0 0 1-26.271-18.655 43.781 43.781 0 0 1-14.03 4.752c-23.566 3.733-45.704-12.062-49.97-35.407-21.055-3.781-38.385-20.474-41.92-42.794-1.852-11.693.381-23.084 5.63-32.74a44.956 44.956 0 0 1-7.901-19.241c-3.9-24.63 12.903-47.759 37.533-51.66 14.725-2.332 28.907 2.739 38.768 12.458" style="stroke-width:15;stroke-linecap:round;stroke-linejoin:round;stroke-miterlimit:10;stroke-dasharray:none;stroke-opacity:1" transform="translate(247.89 458.203)" fill="none" stroke="#000000" stroke-width="15" stroke-linecap="round" stroke-linejoin="round" stroke-miterlimit="10" stroke-dasharray="none" stroke-opacity="" data-original="#000000" class=""></path><path d="M0 0c8.234-7.904 18.882-13.461 31.01-15.382 31.59-5.003 61.256 16.55 66.259 48.141 2.397 15.134-1.304 29.824-9.281 41.574 8.559 7.278 14.665 17.523 16.561 29.489 4.212 26.593-13.932 51.566-40.525 55.778-.125.019-.249.031-.373.049-4.673 18.283-19.795 32.959-39.617 36.099-14.936 2.365-29.361-2.322-39.884-11.599-7.348 12.055-19.062 21.357-33.344 25.423" style="stroke-width:15;stroke-linecap:round;stroke-linejoin:round;stroke-miterlimit:10;stroke-dasharray:none;stroke-opacity:1" transform="translate(331.796 249.587)" fill="none" stroke="#000000" stroke-width="15" stroke-linecap="round" stroke-linejoin="round" stroke-miterlimit="10" stroke-dasharray="none" stroke-opacity="" data-original="#000000" class=""></path><path d="M0 0c-5.903-3.935-9.937-10.514-10.331-18.144-.589-11.402 7.15-21.301 17.891-23.811C6.044-60.852 19.31-78.024 38.348-81.04c4.927-.78 9.78-.536 14.344.569 4.333-5.724 10.794-9.851 18.446-11.063 9.622-1.524 18.879 1.913 25.183 8.412a40.416 40.416 0 0 1 16.22-6.357c19.727-3.125 38.371 8.54 44.674 26.783" style="stroke-width:15;stroke-linecap:round;stroke-linejoin:round;stroke-miterlimit:10;stroke-dasharray:none;stroke-opacity:1" transform="translate(181.936 325.23)" fill="none" stroke="#000000" stroke-width="15" stroke-linecap="round" stroke-linejoin="round" stroke-miterlimit="10" stroke-dasharray="none" stroke-opacity="" data-original="#000000" class=""></path><path d="m0 0-19.123-19.095c-4.207-4.201-11.022-4.201-15.229 0l-52.439 52.363c-2.813 2.79-9.905 10.643-9.904 24.67.001 20.936 16.971 37.908 37.907 37.908 13.553 0 25.349-7.113 32.05-17.808C-20.036 88.733-8.232 95.846 5.32 95.846c20.912 0 37.885-17.789 37.9-38.702.008-11.306-6.712-20.271-9.819-23.783a4.168 4.168 0 0 0-.159-.168l-8.393-8.381" style="stroke-width:15;stroke-linecap:round;stroke-linejoin:round;stroke-miterlimit:10;stroke-dasharray:none;stroke-opacity:1" transform="translate(306.272 299.26)" fill="none" stroke="#000000" stroke-width="15" stroke-linecap="round" stroke-linejoin="round" stroke-miterlimit="10" stroke-dasharray="none" stroke-opacity="" data-original="#000000" class=""></path></g></g></svg>