<svg xmlns="http://www.w3.org/2000/svg" version="1.1" xmlns:xlink="http://www.w3.org/1999/xlink" width="512" height="512" x="0" y="0" viewBox="0 0 66 66" style="enable-background:new 0 0 512 512" xml:space="preserve" class=""><g><circle cx="27.19" cy="50.37" r="1" fill="#000000" opacity="1" data-original="#000000" class=""></circle><path d="M23.88 21.85c.63.63 1.45.94 2.28.94s1.65-.31 2.28-.94c.34-.34.34-.9 0-1.24s-.9-.34-1.24 0c-.57.57-1.51.57-2.08 0-.34-.34-.9-.34-1.24 0s-.34.9 0 1.24z" fill="#000000" opacity="1" data-original="#000000" class=""></path><circle cx="23.26" cy="16.8" r="1" fill="#000000" opacity="1" data-original="#000000" class=""></circle><circle cx="29.05" cy="16.8" r="1" fill="#000000" opacity="1" data-original="#000000" class=""></circle><path d="M62.09 6.96h-19c-1.58 0-2.88 1.29-2.88 2.88v5.06H38.1a2.11 2.11 0 0 0-1.03-.66c-.1-.03-.2-.04-.3-.05.63-2.53 1.07-7.2-2.77-10.53-2.48-2.15-4.95-3.05-7.34-2.65-2.92.48-4.79 2.75-5.44 3.67-1.08.14-3.79.69-5.15 2.81-.99 1.54-1.02 3.52-.13 5.88-.04.27-.07.54-.1.79-.21 0-.41.02-.61.08-.4.11-.74.34-1.03.66H5.9c-2.69 0-4.88 2.19-4.88 4.88v30.59c0 2.69 2.19 4.88 4.88 4.88h12.82v4.08h-1.88a2.88 2.88 0 0 0 0 5.76h20.7a2.88 2.88 0 0 0 0-5.76h-1.88v-4.08h12.82c2.69 0 4.88-2.19 4.88-4.88V25.66h8.74c1.58 0 2.88-1.29 2.88-2.88V9.84a2.896 2.896 0 0 0-2.89-2.88zM43.55 30.09c.12.06.25.09.38.09.2 0 .39-.07.55-.19l3.13-2.53V45.5h-3.4c.05-.23.08-.47.06-.71-.44-5.08-3.06-9.74-7.05-12.82a.827.827 0 0 0-.35-.26c-.87-.64-1.79-1.2-2.78-1.68-.93-.45-1.9-.82-2.9-1.11v-1.98c1.72-1.35 3.12-3.28 4.03-5.26.85.13 1.71-.27 2.39-1.03.02 0 .04.01.06.01h2.54v2.13a2.89 2.89 0 0 0 2.83 2.88v3.65c.01.32.2.63.51.77zm-26.47-8.42c.92 1.99 2.31 3.91 4.03 5.26v1.98c-1 .29-1.97.66-2.9 1.11-5.73 2.79-9.63 8.45-10.18 14.76-.02.24.01.48.06.71H6.78V20.65h7.92c.68.75 1.54 1.14 2.38 1.02zm13.03 8.76c.84.21 1.65.51 2.45.84-1.17 2.45-3.64 4.05-6.4 4.05s-5.22-1.6-6.4-4.05c.79-.34 1.61-.63 2.45-.84.39-.1.66-.45.66-.85v-1.55c1.02.5 2.12.79 3.29.79s2.26-.3 3.29-.79v1.55c-.01.4.27.75.66.85zM9.92 45.34a.5.5 0 0 1-.13-.4c.39-4.51 2.68-8.64 6.18-11.42v3.96a4.14 4.14 0 0 0-3.27 4.05c0 .48.39.88.88.88s.88-.39.88-.88c0-1.32 1.08-2.4 2.4-2.4s2.4 1.08 2.4 2.4c0 .48.39.88.88.88s.88-.39.88-.88c0-1.99-1.4-3.65-3.27-4.05V32.3c.15-.09.29-.18.44-.27 1.46 3.05 4.56 5.04 8 5.04s6.53-1.99 8-5.04c.53.3 1.04.63 1.53.98v4.51c-1.26.38-2.19 1.54-2.19 2.92a3.06 3.06 0 1 0 6.12 0c0-1.38-.93-2.54-2.19-2.92v-3.07c2.89 2.73 4.75 6.46 5.1 10.49.02.2-.08.34-.13.4a.46.46 0 0 1-.35.15H10.27a.46.46 0 0 1-.35-.15zm26.63-6.21c.72 0 1.31.59 1.31 1.31s-.59 1.31-1.31 1.31-1.31-.59-1.31-1.31.59-1.31 1.31-1.31zm3.67-20.23H38.6c.02-.07.06-.14.08-.22.2-.69.25-1.39.17-2.03h1.36v2.25zM17.55 8.44c1.19-1.87 4.2-2.06 4.23-2.06.29-.02.56-.18.71-.43.02-.03 1.68-2.77 4.48-3.22 1.86-.29 3.83.46 5.9 2.25 3.07 2.66 2.81 6.35 2.31 8.51-1.02-1.19-2.76-2.32-5.46-2.32h-.2c-4.23 0-6.8-2.76-6.82-2.79a.873.873 0 0 0-.76-.28c-.29.04-.53.21-.67.47-1.45 2.81-3.02 3.56-3.82 3.75-.55-1.6-.51-2.91.1-3.88zm-1.83 7.48c.16-.04.34.03.46.11.26.15.58.16.85.02s.44-.41.46-.72c.02-.28.06-.74.12-1.25 1.06-.21 2.93-.97 4.63-3.71 1.24 1 3.74 2.57 7.25 2.57h.21c3.93 0 4.81 2.83 4.84 2.95.1.35.41.61.77.64.31.03.64-.13.81-.41.02-.01.04-.03.06-.04.06-.04.12-.09.16-.14.08-.02.16-.03.23 0 .18.05.35.28.45.61.14.47.12 1.08-.04 1.67-.35 1.22-1.15 1.84-1.55 1.72-.01 0-.05-.02-.14-.09-.22-.18-.5-.24-.77-.17s-.49.27-.59.53c-1.35 3.42-4.28 6.88-7.8 6.88s-6.45-3.45-7.79-6.88a.893.893 0 0 0-.59-.53.833.833 0 0 0-.22-.03c-.2 0-.39.07-.55.19-.08.07-.13.08-.14.09-.39.11-1.2-.5-1.55-1.72-.17-.59-.19-1.2-.04-1.67.12-.33.29-.56.47-.62zM38.67 62.2c0 .62-.51 1.13-1.13 1.13h-20.7c-.62 0-1.13-.51-1.13-1.13s.51-1.13 1.13-1.13h20.7c.63 0 1.13.51 1.13 1.13zm-4.76-2.88H20.48v-4.08h13.43zm17.7-8.95c0 1.72-1.4 3.13-3.13 3.13H5.91c-1.72 0-3.13-1.4-3.13-3.13V19.78c0-1.72 1.4-3.13 3.13-3.13h7.55c-.08.64-.03 1.34.17 2.03.02.08.05.14.08.22h-7.8c-.48 0-.88.39-.88.88v26.59c0 .48.39.88.88.88h42.57c.48 0 .88-.39.88-.88V26.04l.47-.38h1.78zm11.61-27.59c0 .62-.5 1.13-1.13 1.13H49.52c-.2 0-.39.07-.55.19l-4.17 3.37v-2.69c0-.48-.39-.88-.88-.88h-.83c-.62 0-1.13-.5-1.13-1.13V9.84c0-.62.5-1.13 1.13-1.13h19c.62 0 1.13.5 1.13 1.13z" fill="#000000" opacity="1" data-original="#000000" class=""></path><path d="M57.77 15.01h-4.31V10.7c0-.48-.39-.88-.88-.88s-.88.39-.88.88v4.31h-4.31c-.48 0-.88.39-.88.88 0 .48.39.88.88.88h4.31v4.31c0 .48.39.88.88.88s.88-.39.88-.88v-4.31h4.31c.48 0 .88-.39.88-.88s-.39-.88-.88-.88z" fill="#000000" opacity="1" data-original="#000000" class=""></path></g></svg>