<svg xmlns="http://www.w3.org/2000/svg" version="1.1" xmlns:xlink="http://www.w3.org/1999/xlink" width="512" height="512" x="0" y="0" viewBox="0 0 512 512" style="enable-background:new 0 0 512 512" xml:space="preserve" class=""><g><path d="M165.9 378.9h-24.6c-13.6 0-24.6-11-24.6-24.6V157.7c0-13.6 11-24.6 24.6-24.6h24.6c13.6 0 24.6-11 24.6-24.6V26.6c0-13.6-11-24.6-24.6-24.6h-49.2C58 2 10.2 49.8 10.2 108.5v295C10.2 462.2 58 510 116.7 510h49.2c13.6 0 24.6-11 24.6-24.6v-81.9c0-13.6-11.1-24.6-24.6-24.6zm8.2-352.3v81.9c0 4.5-3.7 8.2-8.2 8.2h-24.6c-2.8 0-5.5.3-8.2.8V18.4h32.8c4.5 0 8.2 3.7 8.2 8.2zM26.6 403.5v-295c0-49.7 40.4-90.1 90.1-90.1v106.7c-9.9 7.5-16.4 19.2-16.4 32.6v196.6c0 13.3 6.5 25.1 16.4 32.6v106.7c-49.7 0-90.1-40.4-90.1-90.1zm147.5 81.9c0 4.5-3.7 8.2-8.2 8.2h-32.8v-99.1c2.6.5 5.4.8 8.2.8h24.6c4.5 0 8.2 3.7 8.2 8.2zM247.8 2v16.4c131 0 237.6 106.6 237.6 237.6S378.8 493.6 247.8 493.6V510c140.1 0 254-113.9 254-254S387.9 2 247.8 2z" fill="#000000" opacity="1" data-original="#000000" class=""></path><path d="M247.8 444.5c2.9 0 5.7-.1 8.6-.2l-.7-16.4c-2.6.1-5.2.2-7.8.2v16.4zM272.7 442.8c5.4-.7 10.9-1.7 16.2-2.9l-3.6-16c-4.8 1.1-9.8 2-14.7 2.6zM304.7 435.7c5.2-1.7 10.4-3.6 15.4-5.6l-6.3-15.1c-4.6 1.9-9.3 3.6-14.1 5.2zM320.4 82.1c-5-2.1-10.2-4-15.4-5.7L300 92c4.7 1.5 9.4 3.2 14 5.2zM335.2 89.1l-7.6 14.5c4.4 2.3 8.8 4.9 12.9 7.5l8.9-13.8c-4.6-2.9-9.3-5.7-14.2-8.2zM397.3 370.6l-13-10c-3 4-6.3 7.8-9.6 11.5l12.1 11.1c3.7-4.1 7.2-8.3 10.5-12.6zM352.7 392.3l10 13c4.3-3.3 8.5-6.9 12.5-10.6l-11.1-12.1c-3.7 3.5-7.5 6.7-11.4 9.7zM273 69.2l-2.2 16.2c4.9.7 9.9 1.5 14.7 2.6l3.6-16c-5.3-1.1-10.7-2-16.1-2.8zM393 163.8c2.7 4.2 5.2 8.5 7.5 13l14.5-7.6c-2.5-4.8-5.3-9.6-8.2-14.2zM415 342.9l-14.5-7.6c-2.3 4.4-4.8 8.8-7.5 13l13.8 8.8c2.9-4.6 5.7-9.3 8.2-14.2zM406.9 190.4c1.9 4.6 3.6 9.4 5.1 14.1l15.6-4.9c-1.6-5.2-3.5-10.4-5.6-15.4zM352.8 119.8c3.9 3 7.8 6.3 11.5 9.7l11.1-12.1c-4-3.7-8.2-7.3-12.5-10.6zM415.9 218.9c1.1 4.9 1.9 9.8 2.6 14.8l16.3-2.1c-.7-5.4-1.7-10.8-2.8-16.2zM335.1 423c4.8-2.5 9.6-5.3 14.2-8.2l-8.8-13.8c-4.2 2.7-8.5 5.2-13 7.5zM374.8 140.1c3.4 3.7 6.6 7.5 9.6 11.5l13-10c-3.3-4.3-6.9-8.6-10.5-12.6zM427.6 312.7l-15.6-4.9c-1.5 4.7-3.2 9.5-5.1 14.1l15.1 6.3c2-5.1 3.9-10.3 5.6-15.5zM434.7 280.6l-16.3-2.1c-.6 4.9-1.5 9.9-2.6 14.8l16 3.5c1.2-5.3 2.1-10.8 2.9-16.2zM436.3 256c0-2.7-.1-5.4-.2-8.1l-16.4.7c.1 2.5.2 4.9.2 7.4s-.1 5.1-.2 7.6l16.4.7c.1-2.7.2-5.5.2-8.3zM256.4 67.7c-2.8-.1-5.7-.2-8.6-.2v16.4c2.6 0 5.2.1 7.8.2zM305.2 346.1v-57.4h57.4v-65.5h-57.4v-57.4h-65.5v57.4h-57.4v65.5h57.4v57.4zm-106.6-73.7v-32.8H256v-57.4h32.8v57.4h57.4v32.8h-57.4v57.4H256v-57.4zM59.4 280.6h16.4V297H59.4zM59.4 247.8h16.4v16.4H59.4zM59.4 215h16.4v16.4H59.4z" fill="#000000" opacity="1" data-original="#000000" class=""></path></g></svg>